{"title":"Captain Horatio Hornblower R.N. (1951)MP-4[DaScubaDude]","uid":12349742,"size":1155382398,"categoryP":"video","categoryS":"movies","magnet":"?xt=urn:btih:c7d3a6914325411f058f9c5f64a382730025d28b&amp;dn=Captain+Horatio+Hornblower+R.N.+%281951%29MP-4%5BDaScubaDude%5D&amp;tr=udp%3A%2F%2Ftracker.openbittorrent.com%3A80&amp;tr=udp%3A%2F%2Fopen.demonii.com%3A1337&amp;tr=udp%3A%2F%2Ftracker.coppersurfer.tk%3A6969&amp;tr=udp%3A%2F%2Fexodus.desync.com%3A6969","seeders":3,"leechers":0,"uploader":"dascuba","files":1,"time":1441404100,"description":"Captain Horatio Hornblower R.N. (1951)\n117 min  |  Action, Adventure, Drama  |  10 April 1951 (UK)\n7.5 Your rating:   -/10   Ratings: 7.5/10 from 4,636 users   \nReviews: 53 user | 18 critic\nDuring the Napoleonic wars, a British naval captain has adventures in Central American waters.\n\nDirector: Raoul Walsh\nWriters: Ivan Goff (screenplay), Ben Roberts (screenplay), 3 more credits Â»\nStars: Gregory Peck, Virginia Mayo, Robert Beatty \n\nGeneral\nComplete name                            : C:Captain Horatio HornblowerCAPTAIN_HORATIO_HORNBLOWER_Title1.mp4\nFormat                                   : MPEG-4\nFormat profile                           : Base Media\nCodec ID                                 : isom\nFile size                                : 1.08 GiB\nDuration                                 : 1h 56mn\nOverall bit rate                         : 1 320 Kbps\nMovie name                               : CAPTAIN_HORATIO_HORNBLOWER\nGenre                                    : Adventure\nWriting application                      : Lavf54.6.100\n\nVideo\nID                                       : 1\nFormat                                   : AVC\nFormat/Info                              : Advanced Video Codec\nFormat profile                           : Baseline@L3\nFormat settings, CABAC                   : No\nFormat settings, ReFrames                : 6 frames\nFormat settings, GOP                     : M=1, N=60\nCodec ID                                 : avc1\nCodec ID/Info                            : Advanced Video Coding\nDuration                                 : 1h 56mn\nBit rate                                 : 1 206 Kbps\nWidth                                    : 720 pixels\nHeight                                   : 540 pixels\nDisplay aspect ratio                     : 4:3\nFrame rate mode                          : Constant\nFrame rate                               : 29.970 fps\nColor space                              : YUV\nChroma subsampling                       : 4:2:0\nBit depth                                : 8 bits\nScan type                                : Progressive\nBits/(Pixel*Frame)                       : 0.104\nStream size                              : 1 007 MiB (91%)\n\nAudio\nID                                       : 2\nFormat                                   : AAC\nFormat/Info                              : Advanced Audio Codec\nFormat profile                           : LC\nCodec ID                                 : 40\nDuration                                 : 1h 56mn\nBit rate mode                            : Constant\nBit rate                                 : 107 Kbps\nChannel(s)                               : 2 channels\nChannel(s)_Original                      : 1 channel\nChannel positions                        : Front: C\nSampling rate                            : 44.1 KHz\nCompression mode                         : Lossy\nStream size                              : 89.3 MiB (8%)","torrent":{"xt":"urn:btih:c7d3a6914325411f058f9c5f64a382730025d28b","amp;dn":"Captain+Horatio+Hornblower+R.N.+%281951%29MP-4%5BDaScubaDude%5D","amp;tr":["udp%3A%2F%2Ftracker.openbittorrent.com%3A80","udp%3A%2F%2Fopen.demonii.com%3A1337","udp%3A%2F%2Ftracker.coppersurfer.tk%3A6969","udp%3A%2F%2Fexodus.desync.com%3A6969"],"infoHash":"c7d3a6914325411f058f9c5f64a382730025d28b","infoHashBuffer":{"type":"Buffer","data":[199,211,166,145,67,37,65,31,5,143,156,95,100,163,130,115,0,37,210,139]},"announce":[],"urlList":[]}}